<?xml version="1.0" encoding="UTF-8" standalone="no"?>
<!DOCTYPE svg PUBLIC "-//W3C//DTD SVG 1.1//EN"
 "http://www.w3.org/Graphics/SVG/1.1/DTD/svg11.dtd">
<!-- Generated by graphviz version 2.38.0 (20140413.2041)
 -->
<!-- Title: %3 Pages: 1 -->
<svg width="903pt" height="412pt"
 viewBox="0.00 0.00 902.88 412.20" xmlns="http://www.w3.org/2000/svg" xmlns:xlink="http://www.w3.org/1999/xlink">
<g id="graph0" class="graph" transform="scale(1 1) rotate(0) translate(4 408.203)">
<title>%3</title>
<polygon fill="white" stroke="none" points="-4,4 -4,-408.203 898.884,-408.203 898.884,4 -4,4"/>
<!-- * -->
<g id="node1" class="node"><title>*</title>
<ellipse fill="black" stroke="black" cx="430.885" cy="-386.203" rx="18" ry="18"/>
</g>
<!-- idle -->
<g id="node2" class="node"><title>idle</title>
<text text-anchor="start" x="417.998" y="-193.369" font-family="Times,serif" font-size="14.00">idle</text>
<text text-anchor="start" x="408.498" y="-172.369" font-family="Times,serif" font-size="14.00">Entry:</text>
<text text-anchor="start" x="460.498" y="-173.369" font-family="Times,serif" font-style="italic" font-size="14.00">on_entry_idle</text>
<text text-anchor="start" x="414.498" y="-151.369" font-family="Times,serif" font-size="14.00">Exit:</text>
<text text-anchor="start" x="465.998" y="-152.369" font-family="Times,serif" font-style="italic" font-size="14.00">on_exit_idle</text>
<polygon fill="black" stroke="black" points="403.498,-186.569 403.498,-186.569 561.498,-186.569 561.498,-186.569 403.498,-186.569"/>
<path fill="none" stroke="black" d="M414.998,-143.069C414.998,-143.069 549.998,-143.069 549.998,-143.069 555.998,-143.069 561.998,-149.069 561.998,-155.069 561.998,-155.069 561.998,-198.069 561.998,-198.069 561.998,-204.069 555.998,-210.069 549.998,-210.069 549.998,-210.069 414.998,-210.069 414.998,-210.069 408.998,-210.069 402.998,-204.069 402.998,-198.069 402.998,-198.069 402.998,-155.069 402.998,-155.069 402.998,-149.069 408.998,-143.069 414.998,-143.069"/>
</g>
<!-- *&#45;&gt;idle -->
<g id="edge1" class="edge"><title>*&#45;&gt;idle</title>
<g id="a_edge1"><a xlink:title="初始变换，没有任何动作">
<path fill="none" stroke="black" d="M430.885,-367.966C430.885,-367.966 430.885,-224.194 430.885,-224.194"/>
<polygon fill="black" stroke="black" points="434.385,-224.194 430.885,-214.194 427.385,-224.194 434.385,-224.194"/>
</a>
</g>
</g>
<!-- {&quot;fs&quot;: &quot;idle&quot;, &quot;ts&quot;: &quot;value_changed&quot;, &quot;ev&quot;: &quot;set_value&quot;} -->
<g id="node3" class="node"><title>{&quot;fs&quot;: &quot;idle&quot;, &quot;ts&quot;: &quot;value_changed&quot;, &quot;ev&quot;: &quot;set_value&quot;}</title>
<g id="a_node3"><a xlink:title=" ">
<text text-anchor="start" x="618.438" y="-32.8" font-family="Times,serif" font-size="14.00">set_value</text>
<text text-anchor="start" x="618.438" y="-12.8" font-family="Times,serif" font-style="italic" font-size="14.00">set_value</text>
<polygon fill="black" stroke="black" points="614.438,-26 614.438,-26 690.438,-26 690.438,-26 614.438,-26"/>
</a>
</g>
</g>
<!-- idle&#45;&gt;{&quot;fs&quot;: &quot;idle&quot;, &quot;ts&quot;: &quot;value_changed&quot;, &quot;ev&quot;: &quot;set_value&quot;} -->
<g id="edge2" class="edge"><title>idle&#45;&gt;{&quot;fs&quot;: &quot;idle&quot;, &quot;ts&quot;: &quot;value_changed&quot;, &quot;ev&quot;: &quot;set_value&quot;}</title>
<g id="a_edge2"><a xlink:title=" ">
<path fill="none" stroke="black" d="M570.096,-161C608.25,-161 644.425,-161 644.425,-161 644.425,-161 644.425,-91.2588 644.425,-52.0294"/>
</a>
</g>
</g>
<!-- {&quot;fs&quot;: &quot;idle&quot;, &quot;ts&quot;: &quot;X&quot;, &quot;ev&quot;: &quot;terminate&quot;} -->
<g id="node4" class="node"><title>{&quot;fs&quot;: &quot;idle&quot;, &quot;ts&quot;: &quot;X&quot;, &quot;ev&quot;: &quot;terminate&quot;}</title>
<g id="a_node4"><a xlink:title=" ">
<text text-anchor="middle" x="227.789" y="-106.539" font-family="Times,serif" font-size="14.00">terminate</text>
</a>
</g>
</g>
<!-- idle&#45;&gt;{&quot;fs&quot;: &quot;idle&quot;, &quot;ts&quot;: &quot;X&quot;, &quot;ev&quot;: &quot;terminate&quot;} -->
<g id="edge3" class="edge"><title>idle&#45;&gt;{&quot;fs&quot;: &quot;idle&quot;, &quot;ts&quot;: &quot;X&quot;, &quot;ev&quot;: &quot;terminate&quot;}</title>
<g id="a_edge3"><a xlink:title=" ">
<path fill="none" stroke="black" d="M394.842,-176C321.164,-176 227.789,-176 227.789,-176 227.789,-176 227.789,-148.015 227.789,-128.557"/>
</a>
</g>
</g>
<!-- value_changed -->
<g id="node5" class="node"><title>value_changed</title>
<path fill="none" stroke="black" d="M882.884,-83.4651C882.884,-83.4651 783.884,-83.4651 783.884,-83.4651 777.884,-83.4651 771.884,-77.4651 771.884,-71.4651 771.884,-71.4651 771.884,-59.4651 771.884,-59.4651 771.884,-53.4651 777.884,-47.4651 783.884,-47.4651 783.884,-47.4651 882.884,-47.4651 882.884,-47.4651 888.884,-47.4651 894.884,-53.4651 894.884,-59.4651 894.884,-59.4651 894.884,-71.4651 894.884,-71.4651 894.884,-77.4651 888.884,-83.4651 882.884,-83.4651"/>
<text text-anchor="middle" x="833.384" y="-61.7651" font-family="Times,serif" font-size="14.00">value_changed</text>
</g>
<!-- {&quot;fs&quot;: &quot;idle&quot;, &quot;ts&quot;: &quot;value_changed&quot;, &quot;ev&quot;: &quot;set_value&quot;}&#45;&gt;value_changed -->
<g id="edge4" class="edge"><title>{&quot;fs&quot;: &quot;idle&quot;, &quot;ts&quot;: &quot;value_changed&quot;, &quot;ev&quot;: &quot;set_value&quot;}&#45;&gt;value_changed</title>
<g id="a_edge4"><a xlink:title=" ">
<path fill="none" stroke="black" d="M690.425,-52.1628C690.425,-57.7461 690.425,-62 690.425,-62 690.425,-62 761.512,-62 761.512,-62"/>
<polygon fill="black" stroke="black" points="761.512,-65.5001 771.512,-62 761.512,-58.5001 761.512,-65.5001"/>
</a>
</g>
</g>
<!-- X -->
<g id="node6" class="node"><title>X</title>
<ellipse fill="black" stroke="black" cx="22" cy="-60.5117" rx="18" ry="18"/>
<ellipse fill="none" stroke="black" cx="22" cy="-60.5117" rx="22" ry="22"/>
</g>
<!-- {&quot;fs&quot;: &quot;idle&quot;, &quot;ts&quot;: &quot;X&quot;, &quot;ev&quot;: &quot;terminate&quot;}&#45;&gt;X -->
<g id="edge5" class="edge"><title>{&quot;fs&quot;: &quot;idle&quot;, &quot;ts&quot;: &quot;X&quot;, &quot;ev&quot;: &quot;terminate&quot;}&#45;&gt;X</title>
<g id="a_edge5"><a xlink:title=" ">
<path fill="none" stroke="black" d="M184.147,-110C123.739,-110 22,-110 22,-110 22,-110 22,-92.6504 22,-92.6504"/>
<polygon fill="black" stroke="black" points="25.5001,-92.6504 22,-82.6504 18.5001,-92.6505 25.5001,-92.6504"/>
</a>
</g>
</g>
<!-- {&quot;fs&quot;: &quot;value_changed&quot;, &quot;ts&quot;: &quot;idle&quot;, &quot;ev&quot;: &quot;reset&quot;} -->
<g id="node7" class="node"><title>{&quot;fs&quot;: &quot;value_changed&quot;, &quot;ts&quot;: &quot;idle&quot;, &quot;ev&quot;: &quot;reset&quot;}</title>
<g id="a_node7"><a xlink:title=" ">
<text text-anchor="middle" x="709.411" y="-197.657" font-family="Times,serif" font-size="14.00">reset</text>
</a>
</g>
</g>
<!-- value_changed&#45;&gt;{&quot;fs&quot;: &quot;value_changed&quot;, &quot;ts&quot;: &quot;idle&quot;, &quot;ev&quot;: &quot;reset&quot;} -->
<g id="edge6" class="edge"><title>value_changed&#45;&gt;{&quot;fs&quot;: &quot;value_changed&quot;, &quot;ts&quot;: &quot;idle&quot;, &quot;ev&quot;: &quot;reset&quot;}</title>
<g id="a_edge6"><a xlink:title=" ">
<path fill="none" stroke="black" d="M771.67,-72C743.977,-72 717.425,-72 717.425,-72 717.425,-72 717.425,-147.441 717.425,-183.098"/>
</a>
</g>
</g>
<!-- {&quot;fs&quot;: &quot;value_changed&quot;, &quot;ts&quot;: &quot;idle&quot;, &quot;ev&quot;: &quot;reset&quot;}&#45;&gt;idle -->
<g id="edge7" class="edge"><title>{&quot;fs&quot;: &quot;value_changed&quot;, &quot;ts&quot;: &quot;idle&quot;, &quot;ev&quot;: &quot;reset&quot;}&#45;&gt;idle</title>
<g id="a_edge7"><a xlink:title=" ">
<path fill="none" stroke="black" d="M682.04,-198C682.04,-198 580.194,-198 580.194,-198"/>
<polygon fill="black" stroke="black" points="580.194,-194.5 570.194,-198 580.194,-201.5 580.194,-194.5"/>
</a>
</g>
</g>
</g>
</svg>
